HIERARCHY
ROOT hips
{
  OFFSET 0 10.6860622 2.3727825e-15
  CHANNELS 6 Xposition Yposition Zposition Yrotation Xrotation Zrotation
  JOINT leftUpperLeg
  {
    OFFSET 0.6642549969 -0.9402397400000004 0
    CHANNELS 3 Yrotation Xrotation Zrotation
    JOINT leftLowerLeg
    {
      OFFSET 0 -3.997221335632195 0
      CHANNELS 3 Yrotation Xrotation Zrotation
      JOINT leftFoot
      {
        OFFSET -0.13777839790000004 -4.6145792000000005 -0.22186036399999998
        CHANNELS 3 Yrotation Xrotation Zrotation
        JOINT leftToes
        {
          OFFSET -0.03777410834999995 -0.9130806927000008 0.85230013
          CHANNELS 3 Yrotation Xrotation Zrotation
          End Site
          {
            OFFSET -0.03777410834999995 -0.9130806927000008 0.85230013
          }
        }
      }
    }
  }
  JOINT rightUpperLeg
  {
    OFFSET -0.6642778626 -0.9402397400000004 0
    CHANNELS 3 Yrotation Xrotation Zrotation
    JOINT rightLowerLeg
    {
      OFFSET 0 -3.997221452859387 0
      CHANNELS 3 Yrotation Xrotation Zrotation
      JOINT rightFoot
      {
        OFFSET 0.1377926176 -4.6145792000000005 -0.22185782299999995
        CHANNELS 3 Yrotation Xrotation Zrotation
        JOINT rightToes
        {
          OFFSET 0.037780746850000047 -0.9130806927000008 0.85230167
          CHANNELS 3 Yrotation Xrotation Zrotation
          End Site
          {
            OFFSET 0.037780746850000047 -0.9130806927000008 0.85230167
          }
        }
      }
    }
  }
  JOINT spine
  {
    OFFSET 0 0.13988381660000015 0
    CHANNELS 3 Yrotation Xrotation Zrotation
    JOINT chest
    {
      OFFSET 0 0.6191039003973773 0
      CHANNELS 3 Yrotation Xrotation Zrotation
      JOINT upperChest
      {
        OFFSET 0 0.9855186130586943 0
        CHANNELS 3 Yrotation Xrotation Zrotation
        JOINT leftShoulder
        {
          OFFSET 0.1807663869 1.5087829790000005 0
          CHANNELS 3 Yrotation Xrotation Zrotation
          JOINT leftUpperArm
          {
            OFFSET 0.5985063006419806 0 0
            CHANNELS 3 Yrotation Xrotation Zrotation
            JOINT leftLowerArm
            {
              OFFSET 2.2993332369501065 0 0
              CHANNELS 3 Yrotation Xrotation Zrotation
              JOINT leftHand
              {
                OFFSET 2.395047042602395 0 0
                CHANNELS 3 Yrotation Xrotation Zrotation
                JOINT leftIndexProximal
                {
                  OFFSET 0.5766295810000004 0.04556643899499946 0.17265095988184
                  CHANNELS 3 Yrotation Xrotation Zrotation
                  JOINT leftIndexIntermediate
                  {
                    OFFSET 0.2957229000000008 -0.019352197700001517 -0.007932640616999987
                    CHANNELS 3 Yrotation Xrotation Zrotation
                    JOINT leftIndexDistal
                    {
                      OFFSET 0.19008243099999922 -0.012484908149998475 -0.002786250786000012
                      CHANNELS 3 Yrotation Xrotation Zrotation
                      End Site
                      {
                        OFFSET 0.19008243099999922 -0.012484908149998475 -0.002786250786000012
                      }
                    }
                  }
                }
                JOINT leftMiddleProximal
                {
                  OFFSET 0.5834975091000001 0.0524350405149987 0.02204081888183999
                  CHANNELS 3 Yrotation Xrotation Zrotation
                  JOINT leftMiddleIntermediate
                  {
                    OFFSET 0.33880573540000003 -0.019871473270000717 -0.00000971183179999946
                    CHANNELS 3 Yrotation Xrotation Zrotation
                    JOINT leftMiddleDistal
                    {
                      OFFSET 0.20676022730000088 -0.012221336379999448 0.0001471936708000235
                      CHANNELS 3 Yrotation Xrotation Zrotation
                      End Site
                      {
                        OFFSET 0.20676022730000088 -0.012221336379999448 0.0001471936708000235
                      }
                    }
                  }
                }
                JOINT leftLittleProximal
                {
                  OFFSET 0.5344154683999995 -0.012880921405001189 -0.24414037221816004
                  CHANNELS 3 Yrotation Xrotation Zrotation
                  JOINT leftLittleIntermediate
                  {
                    OFFSET 0.21758961730000093 -0.011650919939999227 0.011893592810000034
                    CHANNELS 3 Yrotation Xrotation Zrotation
                    JOINT leftLittleDistal
                    {
                      OFFSET 0.1475273964999999 -0.008152365682999818 0.006001092492999946
                      CHANNELS 3 Yrotation Xrotation Zrotation
                      End Site
                      {
                        OFFSET 0.1475273964999999 -0.008152365682999818 0.006001092492999946
                      }
                    }
                  }
                }
                JOINT leftRingProximal
                {
                  OFFSET 0.5799399463000003 0.026911854694997794 -0.12150566991816003
                  CHANNELS 3 Yrotation Xrotation Zrotation
                  JOINT leftRingIntermediate
                  {
                    OFFSET 0.26167887460000006 -0.013480186499999602 0.010996293000000053
                    CHANNELS 3 Yrotation Xrotation Zrotation
                    JOINT leftRingDistal
                    {
                      OFFSET 0.17667108799999987 -0.008990287899999228 0.0055541023999999065
                      CHANNELS 3 Yrotation Xrotation Zrotation
                      End Site
                      {
                        OFFSET 0.17667108799999987 -0.008990287899999228 0.0055541023999999065
                      }
                    }
                  }
                }
                JOINT leftThumbProximal
                {
                  OFFSET 0.11018806699999972 -0.09448718900500053 0.17047963138184
                  CHANNELS 3 Yrotation Xrotation Zrotation
                  JOINT leftThumbIntermediate
                  {
                    OFFSET 0.31062601459999983 -0.08126270900000132 0.15443142000000007
                    CHANNELS 3 Yrotation Xrotation Zrotation
                    JOINT leftThumbDistal
                    {
                      OFFSET 0.21627175790000086 -0.08833193599999878 0.018771167799999988
                      CHANNELS 3 Yrotation Xrotation Zrotation
                      End Site
                      {
                        OFFSET 0.21627175790000086 -0.08833193599999878 0.018771167799999988
                      }
                    }
                  }
                }
              }
            }
          }
        }
        JOINT neck
        {
          OFFSET 0 1.5463305265074576 0
          CHANNELS 3 Yrotation Xrotation Zrotation
          JOINT head
          {
            OFFSET 0 0.8456443600000344 0
            CHANNELS 3 Yrotation Xrotation Zrotation
            JOINT leftEye
            {
              OFFSET 0.30408573140000006 0.5104519199999995 0.1276382305
              CHANNELS 3 Yrotation Xrotation Zrotation
              End Site
              {
                OFFSET 0.30408573140000006 0.5104519199999995 0.1276382305
              }
            }
            JOINT rightEye
            {
              OFFSET -0.30409491089999996 0.5104519199999995 0.1276379445
              CHANNELS 3 Yrotation Xrotation Zrotation
              End Site
              {
                OFFSET -0.30409491089999996 0.5104519199999995 0.1276379445
              }
            }
            JOINT jaw
            {
              OFFSET -3.155239131000001e-7 -0.11984121820000082 0.60178107
              CHANNELS 3 Yrotation Xrotation Zrotation
              End Site
              {
                OFFSET -3.155239131000001e-7 -0.11984121820000082 0.60178107
              }
            }
          }
        }
        JOINT rightShoulder
        {
          OFFSET -0.1807303465 1.5087829790000005 0
          CHANNELS 3 Yrotation Xrotation Zrotation
          JOINT rightUpperArm
          {
            OFFSET -0.5985063796536958 0 0
            CHANNELS 3 Yrotation Xrotation Zrotation
            JOINT rightLowerArm
            {
              OFFSET -2.2993322059002854 0 0
              CHANNELS 3 Yrotation Xrotation Zrotation
              JOINT rightHand
              {
                OFFSET -2.395045314457259 0 0
                CHANNELS 3 Yrotation Xrotation Zrotation
                JOINT rightIndexProximal
                {
                  OFFSET -0.5764487688300002 0.0441371204405987 0.17361932004999997
                  CHANNELS 3 Yrotation Xrotation Zrotation
                  JOINT rightIndexIntermediate
                  {
                    OFFSET -0.29573011380000047 -0.01934826376999843 -0.007698921482999974
                    CHANNELS 3 Yrotation Xrotation Zrotation
                    JOINT rightIndexDistal
                    {
                      OFFSET -0.19008373999999884 -0.012503266380000655 -0.0026365778999999897
                      CHANNELS 3 Yrotation Xrotation Zrotation
                      End Site
                      {
                        OFFSET -0.19008373999999884 -0.012503266380000655 -0.0026365778999999897
                      }
                    }
                  }
                }
                JOINT rightMiddleProximal
                {
                  OFFSET -0.5834852037300005 0.05211639405060153 0.02307162440000001
                  CHANNELS 3 Yrotation Xrotation Zrotation
                  JOINT rightMiddleIntermediate
                  {
                    OFFSET -0.33880114510000003 -0.019952774050000954 0.0002455003561999819
                    CHANNELS 3 Yrotation Xrotation Zrotation
                    JOINT rightMiddleDistal
                    {
                      OFFSET -0.20675694929999955 -0.012273788999999091 0.00030209124000002766
                      CHANNELS 3 Yrotation Xrotation Zrotation
                      End Site
                      {
                        OFFSET -0.20675694929999955 -0.012273788999999091 0.00030209124000002766
                      }
                    }
                  }
                }
                JOINT rightLittleProximal
                {
                  OFFSET -0.5346811737299992 -0.011214256288399227 -0.24363941305000003
                  CHANNELS 3 Yrotation Xrotation Zrotation
                  JOINT rightLittleIntermediate
                  {
                    OFFSET -0.21757715980000092 -0.011771559690000988 0.01201554387
                    CHANNELS 3 Yrotation Xrotation Zrotation
                    JOINT rightLittleDistal
                    {
                      OFFSET -0.1475201849000004 -0.00822055339600003 0.006082065407000015
                      CHANNELS 3 Yrotation Xrotation Zrotation
                      End Site
                      {
                        OFFSET -0.1475201849000004 -0.00822055339600003 0.006082065407000015
                      }
                    }
                  }
                }
                JOINT rightRingProximal
                {
                  OFFSET -0.5800810755299999 0.027657985680600072 -0.12066365025000003
                  CHANNELS 3 Yrotation Xrotation Zrotation
                  JOINT rightRingIntermediate
                  {
                    OFFSET -0.26166445029999974 -0.013623118409999302 0.011164098990000045
                    CHANNELS 3 Yrotation Xrotation Zrotation
                    JOINT rightRingDistal
                    {
                      OFFSET -0.17666387530000027 -0.009072900100000503 0.005668185599999959
                      CHANNELS 3 Yrotation Xrotation Zrotation
                      End Site
                      {
                        OFFSET -0.17666387530000027 -0.009072900100000503 0.005668185599999959
                      }
                    }
                  }
                }
                JOINT rightThumbProximal
                {
                  OFFSET -0.10997596379000074 -0.09577489355940072 0.16989765924999997
                  CHANNELS 3 Yrotation Xrotation Zrotation
                  JOINT rightThumbIntermediate
                  {
                    OFFSET -0.31036620999999986 -0.08229339117999834 0.15440884469999996
                    CHANNELS 3 Yrotation Xrotation Zrotation
                    JOINT rightThumbDistal
                    {
                      OFFSET -0.21631306399999906 -0.08825326400000111 0.018656797720000014
                      CHANNELS 3 Yrotation Xrotation Zrotation
                      End Site
                      {
                        OFFSET -0.21631306399999906 -0.08825326400000111 0.018656797720000014
                      }
                    }
                  }
                }
              }
            }
          }
        }
      }
    }
  }
}
MOTION
Frames: 4
Frame Time: 0.03333333333333333
0.5794147253036499 -2.584863049914551 -0.3972351551055908 -15.418110017838558 3.690219841752104 -1.2860051260625593 32.03189838556301 -59.50716998954742 -15.394367258667282 -9.304788090289296 78.43182764128387 -11.765207205016395 11.153903807615254 -22.90207215590482 7.0023004463300085 -0.025582860835810402 -1.920813885607972 0.06832768787614102 16.82219152353302 -47.05171213996299 -15.453597696520683 115.78575629739377 88.55707095599149 118.63857405196698 1.725072434448356 -11.839849846559508 10.831250313106134 0.3486917178223283 -35.365139844589194 -1.2986873627567772 0.07788895292651513 10.228257146804724 -3.5592135018865454 -6.201003252460292 40.40065664583744 -18.608623247931924 0 0 0 -23.441315222782908 -1.8787131502838499 -13.350072948712548 -4.7275510656650725 -27.791364344069198 -32.96200388024192 -84.16339332350022 -0.9729609977403331 0.08716425881320337 -9.397745055619557 36.37954404690665 -14.598370345850176 4.507829971896621 1.7722343973355783 -32.18668744179381 0.6056491024968089 0.11021432828458146 -40.65541704622942 -1.281281483810888e-10 1.793762613445802e-24 1.6042536111691759e-12 2.6319967617410316 -0.06435062745394099 -40.31072689955999 -3.8366318407631774 -1.7842594003812038 -45.66891116591011 1.139979627027678e-10 6.3611093629270335e-15 -1.43444452663829e-12 2.768666154230952 -6.20406077251717 -44.280643293222866 -9.920255514003868 -4.340001799769367 -62.94771299342259 3.602720390997899e-7 0.0000023831028064000286 -3.7770343797589374e-7 3.9309291661124757 -5.226628364269619 -45.43194520157943 -5.520111047554125 -2.523990798415041 -54.174278904889185 0 0 0 13.970122541420931 5.171659949847749 -4.113188748947396 8.632395171717702 3.2964597636009043 2.526442861620915 0.00000872918203834652 -0.000008082026994866872 -0.00000387469440536408 3.505158829113354 -14.989550802737714 0.12780145181689095 5.919039544053127 -24.808682380336368 3.2087818849488827 0 0 0 0 0 0 0 0 0 13.44780750532375 -0.09231516921594055 3.5076183347844965 34.680500254437575 -11.959324548219739 53.30263578060091 70.84032326133506 0.18389021909908937 -1.092228115309592 0.9457190841438525 53.49494684570168 3.48367326248929 -6.657642169734321 -3.467890517585337 45.925329855279216 -1.759608668382853 0.9707020146144736 67.567266339329 3.933694872703174e-10 3.1805546814635168e-15 -4.874754472204794e-12 -3.7002858435254606 -7.060720838765767 53.032261672275595 4.043288950462069 -2.198332197513624 57.9095020216045 1.215836204053751e-9 -3.180554491887685e-15 -1.6036856771618462e-11 2.715063717234101 -10.436785319165404 67.24172722839054 13.947012501865661 -14.414059115100416 107.98189323604076 1.6628260911929426e-9 -3.1805543023118527e-15 -2.179830267765673e-11 -1.4891410983144728 -8.21445152276998 64.51161750930746 7.840260265102066 -4.581675828152796 68.10484988058681 -4.3803240153668535e-10 2.0219334966109398e-23 5.2894833502657416e-12 -9.85246337168607 -0.42690408662330614 -1.806454354041105 -9.175731850179067 3.5071858660149933 -3.2927965337404874 -0.0000027056926768557717 0.00001179538982501321 -0.0000028422047300056803
0.5760197043418884 -2.877350194384766 -0.4474157989025116 -15.263098514465133 3.2813099977753195 -0.15888537655396254 36.57762060773484 -61.46062823595554 -19.65684825840527 -16.77946523862556 82.8731867829959 -19.408069746969687 10.740912488408217 -24.336980452641306 7.677643674851363 -0.02557361202611429 -1.8486380055843352 0.06813273702686067 19.403707097304146 -48.59094067587253 -18.68315632469331 166.13848626546607 84.27984373134754 169.13032596952053 3.112230990481032 -13.05757621952086 9.838344256262706 0.44464845270189474 -37.391086127043586 -1.4712616114116737 0.017582859755322196 10.574701302273358 -3.7135916362273407 -6.781294091800899 41.72543008310507 -19.18462444241249 0 0 0 -25.308220422988366 -2.2858431238831174 -13.199579429266715 -2.602645451570572 -27.65809855333745 -32.50986784537002 -88.11932524887192 -1.5083254423963381 -0.10182255731432516 -7.698161705470899 40.273662821630985 -15.27704350416034 4.569744219630102 1.7600592440558203 -32.06884666382922 0.6057301893547551 0.1103842162147707 -40.70361166147006 -1.281281483810888e-10 1.793762613445802e-24 1.6042536111691759e-12 2.7095037784398963 -0.05591477221633629 -40.357619941485666 -3.8377017115403502 -1.7763205960986819 -45.52011825187711 1.139979627027678e-10 6.3611093629270335e-15 -1.43444452663829e-12 2.843414877394974 -6.118758837991617 -44.26324676327921 -9.918716564096556 -4.320735183766436 -62.74415021677904 3.602720390997899e-7 0.0000023831028064000286 -3.7770343797589374e-7 3.9977269824295267 -5.130025314237865 -45.49668226520607 -5.516768080388699 -2.5068623223073163 -53.925858615605115 0 0 0 13.822843526955587 5.320489978955277 -4.382198622677834 8.678401418870218 3.316464110823899 2.537813240552914 0.00000872918203834652 -0.000008082026994866872 -0.00000387469440536408 3.5342655850152647 -14.848292913432644 -0.231305440939122 5.401583954726084 -26.202732624428943 3.185533318851834 0 0 0 0 0 0 0 0 0 13.632555222945829 -0.42027558040977525 3.2868110668530686 35.370581299174546 -11.443318090353001 51.66206998312285 72.84301070429171 0.15666189632118907 -1.2641814797273614 2.4604660121810595 51.731023697328645 2.7065445351170703 -6.645442489599651 -3.482852241637233 45.127954724937005 -1.7530610814574519 0.9518584991291323 66.77070883995216 3.933694872703174e-10 3.1805546814635168e-15 -4.874754472204794e-12 -3.738011324838078 -7.014073969323972 52.24218905934718 4.011431830941647 -2.148162094753903 57.116018899786134 1.215836204053751e-9 -3.180554491887685e-15 -1.6036856771618462e-11 2.658620002121354 -10.304327070370379 66.46816647538517 13.99342099304989 -14.275070403853892 107.18699541780572 1.6628260911929426e-9 -3.1805543023118527e-15 -2.179830267765673e-11 -1.5321482173562841 -8.127682727647548 63.72664838053927 7.80398351394582 -4.49304142818308 67.3165731527329 -4.3803240153668535e-10 2.0219334966109398e-23 5.2894833502657416e-12 -9.626039846252896 -0.5549065298538357 -1.817093760279199 -8.939838860850173 3.3981238542329235 -3.259311343746451 -0.0000027056926768557717 0.00001179538982501321 -0.0000028422047300056803
0.57554030418396 -3.026734216143799 -0.4727226495742798 -15.301935833530237 2.929710501729951 0.3749568308973971 38.918839200861626 -62.29011943048826 -21.75493677925989 -25.41922204699843 84.98018753730915 -28.13405048043943 10.61574262326155 -25.022767844676782 7.970968180714095 -0.0255715940189419 -1.827093257017812 0.06801315070994216 20.719054637783348 -49.22234012883934 -20.256291476283007 170.62959303022217 81.83554661110162 173.6786569515665 3.8626137252097306 -14.079722690519345 9.00390273050204 0.4832023130131263 -38.12656336595058 -1.5378295460659812 -0.0030590946787327346 10.759822602305004 -3.7711022997678474 -7.029267962864506 42.44223813679095 -19.403595581077322 0 0 0 -26.11675236410847 -2.454152172730901 -13.054921752382159 -1.7067762328985812 -27.554607344848954 -32.23734429855532 -89.90588017061437 -1.7990094678022301 -0.19943429192549406 -6.855714290889852 42.64549100199199 -15.258500236610358 4.600681014202741 1.7538752290059192 -32.009936758634105 0.6057891499119883 0.11047049420403099 -40.72772121664041 -1.281281483810888e-10 1.793762613445802e-24 1.6042536111691759e-12 2.7482591256474205 -0.051650757943127734 -40.38104583084873 -3.838262949376916 -1.7723073231450517 -45.445728489830856 1.139979627027678e-10 6.3611093629270335e-15 -1.43444452663829e-12 2.8808193092739347 -6.0761492631818514 -44.25450130319024 -9.917927003677084 -4.311083651241516 -62.642401013024916 3.602720390997899e-7 0.0000023831028064000286 -3.7770343797589374e-7 4.03103333970902 -5.0816682179507975 -45.52901380760725 -5.51507349843997 -2.4983010526441376 -53.80165954812009 0 0 0 13.726572158203796 5.396273828228299 -4.4216850103072955 8.701425243691034 3.3264754158109953 2.543517701542366 0.00000872918203834652 -0.000008082026994866872 -0.00000387469440536408 3.5560758738721603 -14.740719919395898 -0.39226557750321783 5.213724604398176 -26.85423069964016 3.104782870312438 0 0 0 0 0 0 0 0 0 13.773633888936802 -0.579162946942555 3.198400683247485 35.76276199615407 -11.140647678577285 50.72614478733487 73.6900523599622 0.14532136834360798 -1.3429587750309078 3.3237078442734567 50.569626372395625 2.431072983589846 -6.640105079656384 -3.4899782183263555 44.75505728731107 -1.7499098335887742 0.9431088976929889 66.39813369889715 3.933694872703174e-10 3.1805546814635168e-15 -4.874754472204794e-12 -3.7562303069520313 -6.992693477474573 51.87272399573789 3.9963787609345305 -2.124884850006892 56.74487811786053 1.215836204053751e-9 -3.180554491887685e-15 -1.6036856771618462e-11 2.632138163626859 -10.243049402965482 66.106270027261 14.014515442059036 -14.209877954015283 106.81539653228097 1.6628260911929426e-9 -3.1805543023118527e-15 -2.179830267765673e-11 -1.5525939045916382 -8.087683192426688 63.35949001232435 7.7866509266157795 -4.451749289612771 66.9478821315638 -4.3803240153668535e-10 2.0219334966109398e-23 5.2894833502657416e-12 -9.512801251618177 -0.6188615364004506 -1.8225317663934084 -8.821922995040493 3.343547998925398 -3.2427676002785915 -0.0000027056926768557717 0.00001179538982501321 -0.0000028422047300056803
0.5745732188224792 -3.327423913409424 -0.5209883451461792 -15.558331703068777 1.9284033054466188 1.351954947327183 43.39466653923804 -63.683853079912836 -25.601901782208397 -89.78428082415054 87.64731593993318 -92.6744061768765 10.534668172264592 -26.33149458795138 8.442269693645747 -0.0255947750285831 -1.805068921360576 0.0661424688960739 23.49943095718115 -50.20660740173806 -23.453461477619893 174.0822388788764 76.94373494072396 177.24606687522947 5.223133312222506 -16.15952970226098 8.116310999208151 0.5296173416039204 -38.965177919604656 -1.6168030130158075 -0.02920596727768891 11.158369257049195 -3.849291919137305 -7.462269265397422 44.001084692763875 -19.71585878848919 0 0 0 -27.449334534887072 -2.7184898021420874 -12.637391623783907 -0.3133991949948448 -27.281770933296077 -31.54947985621778 -93.04837745860408 -2.4105326364682864 -0.39327701750429594 -4.809679425158258 47.624053646443436 -14.2663973155243 4.6625805460274 1.7413082389708492 -31.892104319758 0.6058584085558595 0.11065984554307107 -40.775906684805065 -1.281281483810888e-10 1.793762613445802e-24 1.6042536111691759e-12 2.825760963133609 -0.04303356088586059 -40.427846741131454 -3.8393293971259044 -1.7643029051832684 -45.29693516512442 1.139979627027678e-10 6.3611093629270335e-15 -1.43444452663829e-12 2.9556824483379818 -5.990999870852314 -44.236964635017536 -9.916262932360599 -4.291756552621472 -62.43884887030374 3.602720390997899e-7 0.0000023831028064000286 -3.7770343797589374e-7 4.097513610629393 -4.984884317770833 -45.59364702848728 -5.511642295314153 -2.4811071099308997 -53.55323487944821 0 0 0 13.483595636577876 5.5122650676129945 -4.5336908859425655 8.747437345617413 3.3464607009104625 2.554919708902748 0.00000872918203834652 -0.000008082026994866872 -0.00000387469440536408 3.6064595541184987 -14.490222435147425 -0.6393340930993032 4.993919884890034 -28.052004695294755 2.740318614122527 0 0 0 0 0 0 0 0 0 14.079642338316557 -0.884038872902835 3.0187688010407343 36.58250180288247 -10.5946832220248 48.844290902310796 75.02086308966179 0.13063311062477662 -1.4754459196808656 4.541158955981441 48.24252431539098 0.6092000100719668 -6.631013209471112 -3.503072373559705 44.08055890424724 -1.744073779841417 0.927269713563818 65.72423743290128 3.933694872703174e-10 3.1805546814635168e-15 -4.874754472204794e-12 -3.790127494296106 -6.954820782122379 51.20450467746913 3.968819417695412 -2.082983700878257 56.07353170907077 1.215836204053751e-9 -3.180554491887685e-15 -1.6036856771618462e-11 2.5841157830412893 -10.133329777600629 65.45150798528452 14.051635610066421 -14.091619132761892 106.14351094338255 1.6628260911929426e-9 -3.1805543023118527e-15 -2.179830267765673e-11 -1.5901016268133796 -8.01623599150077 62.695275436377955 7.754723361679947 -4.377379257365198 66.28097526548366 -4.3803240153668535e-10 2.0219334966109398e-23 5.2894833502657416e-12 -9.286290810248277 -0.7467270877523272 -1.8337062711472756 -8.586150382785322 3.2342813543637674 -3.209987391393344 -0.0000027056926768557717 0.00001179538982501321 -0.0000028422047300056803
